<svg xmlns="http://www.w3.org/2000/svg" viewBox="0 0 1254 1254" role="img" aria-labelledby="title desc">
  <title id="title">OpenTag mark</title>
  <desc id="desc">A traced OpenTag routing mark with a subtle agent visor and vermilion corner signal.</desc>
  <style>
    .brand-dark {
      fill: #212223;
    }
    @media (prefers-color-scheme: dark) {
      .brand-dark {
        fill: #f4f4f5;
      }
    }
  </style>
  <path class="brand-dark" d="M 507.5 303.0 L 684.0 302.5 L 704.0 306.5 L 736.0 319.5 L 755.0 332.5 L 780.5 358.0 L 799.5 379.0 L 799.5 381.0 L 746.0 435.5 L 704.0 391.5 L 693.0 384.5 L 679.0 380.5 L 515.0 380.5 L 499.0 383.5 L 485.0 388.5 L 461.0 403.5 L 446.5 418.0 L 437.5 431.0 L 430.5 446.0 L 424.5 469.0 L 423.5 698.0 L 425.5 723.0 L 432.5 746.0 L 442.5 763.0 L 458.0 780.5 L 475.0 792.5 L 500.0 802.5 L 511.0 804.5 L 693.0 804.5 L 762.5 876.0 L 767.0 882.5 L 506.0 882.5 L 486.0 879.5 L 453.0 868.5 L 429.0 855.5 L 415.0 845.5 L 386.5 818.0 L 372.5 799.0 L 363.5 783.0 L 352.5 754.0 L 346.5 719.0 L 346.5 472.0 L 352.5 434.0 L 362.5 407.0 L 374.5 385.0 L 395.5 358.0 L 414.0 340.5 L 432.0 327.5 L 455.0 315.5 L 487.0 305.5 Z M 874.5 464.0 L 877.5 465.0 L 913.5 505.0 L 912.5 736.0 L 908.5 755.0 L 902.5 772.0 L 892.5 791.0 L 880.5 808.0 L 853.0 835.5 L 818.0 861.5 L 816.0 861.5 L 808.5 854.0 L 690.0 731.5 L 666.0 742.5 L 642.0 748.5 L 608.0 749.5 L 590.0 746.5 L 569.0 739.5 L 547.0 727.5 L 522.5 705.0 L 512.5 691.0 L 505.5 678.0 L 498.5 657.0 L 495.5 640.0 L 495.5 615.0 L 498.5 597.0 L 504.5 578.0 L 515.5 557.0 L 523.5 546.0 L 542.0 527.5 L 565.0 512.5 L 593.0 502.5 L 618.0 499.5 L 636.0 500.5 L 662.0 506.5 L 678.0 513.5 L 701.0 529.5 L 717.5 547.0 L 732.5 572.0 L 742.5 606.0 L 743.5 644.0 L 740.5 664.0 L 738.5 668.0 L 806.0 737.5 L 810.0 739.5 L 820.0 739.5 L 824.0 737.5 L 832.5 728.0 L 835.5 717.0 L 835.5 506.0 Z M 558.0 607.0 L 682.0 607.0 L 690.0 609.5 L 695.0 615.0 L 696.5 622.0 L 695.0 629.0 L 690.0 634.5 L 682.0 637.0 L 558.0 637.0 L 550.0 634.5 L 545.0 629.0 L 543.5 622.0 L 545.0 615.0 L 550.0 609.5 Z" fill-rule="evenodd"/>
  <path d="M 826.5 410.0 L 829.5 412.0 L 836.5 421.0 L 874.5 462.0 L 874.5 464.0 L 872.5 465.0 L 835.0 505.5 L 786.5 452.0 Z" fill="#FE5605"/>
</svg>
